<svg width="28" height="25" viewBox="0 0 28 25" fill="none" xmlns="http://www.w3.org/2000/svg">
<path d="M10.623 23.2363V16.0117C10.623 15.7598 10.6992 15.5576 10.8516 15.4053C11.0039 15.2529 11.2061 15.1768 11.458 15.1768H16.3008C16.5527 15.1768 16.7519 15.2529 16.8984 15.4053C17.0508 15.5576 17.1269 15.7598 17.1269 16.0117V23.2363H10.623ZM1.32421 12.7949C1.00781 12.7949 0.758785 12.7012 0.577145 12.5137C0.395504 12.3203 0.304684 12.0977 0.304684 11.8457C0.304684 11.7051 0.33691 11.5674 0.401363 11.4326C0.465816 11.292 0.565426 11.166 0.700191 11.0547L12.4072 1.22852C12.8643 0.841797 13.3535 0.648438 13.875 0.648438C14.3965 0.648438 14.8857 0.841797 15.3428 1.22852L27.0498 11.0547C27.1846 11.166 27.2842 11.292 27.3486 11.4326C27.4131 11.5674 27.4453 11.7051 27.4453 11.8457C27.4453 12.0977 27.3545 12.3203 27.1728 12.5137C26.9971 12.7012 26.748 12.7949 26.4258 12.7949C26.2734 12.7949 26.1299 12.7598 25.9951 12.6895C25.8662 12.6191 25.7402 12.5342 25.6172 12.4346L14.3584 2.98633C14.2061 2.85742 14.0449 2.79297 13.875 2.79297C13.7051 2.79297 13.5439 2.85742 13.3916 2.98633L2.13281 12.4346C2.00976 12.5342 1.88086 12.6191 1.74609 12.6895C1.61718 12.7598 1.47656 12.7949 1.32421 12.7949ZM21.1963 6.72168V3.98828C21.1963 3.75977 21.2666 3.57812 21.4072 3.44336C21.5537 3.30273 21.7412 3.23242 21.9697 3.23242H23.3584C23.5928 3.23242 23.7803 3.30273 23.9209 3.44336C24.0615 3.57812 24.1318 3.75977 24.1318 3.98828V9.18262L21.1963 6.72168ZM6.21972 24.6514C5.39355 24.6514 4.75488 24.4287 4.30371 23.9834C3.85254 23.5439 3.62695 22.9199 3.62695 22.1113V9.5166L5.56054 8.18945V21.54C5.56054 21.9209 5.65722 22.2109 5.85058 22.4102C6.0498 22.6152 6.33984 22.7178 6.7207 22.7178H21.0205C21.4072 22.7178 21.6973 22.6152 21.8906 22.4102C22.0898 22.2109 22.1894 21.9209 22.1894 21.54V8.18066L24.1318 9.5166V22.1113C24.1318 22.9141 23.9033 23.5381 23.4463 23.9834C22.9951 24.4287 22.3564 24.6514 21.5303 24.6514H6.21972Z" fill="#007AFF"/>
</svg>
