<svg width="26" height="26" viewBox="0 0 26 26" fill="none" xmlns="http://www.w3.org/2000/svg">
<path d="M13.125 23.5088C12.9902 23.5088 12.8525 23.5059 12.7119 23.5C12.5771 23.4941 12.4424 23.4883 12.3076 23.4824L11.71 24.5898C11.6279 24.7422 11.5225 24.8506 11.3936 24.915C11.2646 24.9854 11.1182 25.0029 10.9541 24.9678C10.79 24.9385 10.6582 24.8711 10.5586 24.7656C10.459 24.6602 10.3945 24.5225 10.3652 24.3525L10.1894 23.1133C9.92578 23.0371 9.66504 22.9521 9.40722 22.8584C9.14941 22.7705 8.89746 22.668 8.65136 22.5508L7.71093 23.3857C7.58789 23.5029 7.45312 23.5674 7.30664 23.5791C7.16601 23.5967 7.01953 23.5674 6.86718 23.4912C6.72656 23.3975 6.62695 23.2861 6.56836 23.1572C6.51562 23.0283 6.5039 22.876 6.5332 22.7002L6.78808 21.4785C6.57129 21.3145 6.35449 21.1445 6.13769 20.9688C5.92675 20.7988 5.72754 20.6143 5.54004 20.415L4.37109 20.8896C4.21289 20.9541 4.06347 20.9688 3.92285 20.9336C3.78222 20.9043 3.65625 20.8252 3.54492 20.6963C3.43945 20.5674 3.38086 20.4297 3.36914 20.2832C3.35742 20.1367 3.39843 19.9873 3.49218 19.835L4.16015 18.7803C4.00195 18.5518 3.85546 18.3203 3.7207 18.0859C3.58593 17.8516 3.45703 17.6113 3.33398 17.3652L2.08593 17.3916C1.91015 17.3975 1.76074 17.3652 1.63769 17.2949C1.5205 17.2188 1.43261 17.0986 1.37402 16.9346C1.32129 16.7764 1.3125 16.627 1.34765 16.4863C1.38867 16.3457 1.47949 16.2227 1.62011 16.1172L2.60449 15.3438C2.53418 15.0801 2.47558 14.8135 2.42871 14.5439C2.38183 14.2744 2.34375 14.002 2.31445 13.7266L1.11914 13.3398C0.955074 13.2871 0.829098 13.2021 0.741207 13.085C0.659176 12.9678 0.61816 12.8242 0.61816 12.6543C0.61816 12.4785 0.659176 12.332 0.741207 12.2148C0.829098 12.0977 0.955074 12.0156 1.11914 11.9688L2.31445 11.582C2.34375 11.3066 2.38183 11.0342 2.42871 10.7646C2.47558 10.4951 2.53418 10.2285 2.60449 9.96484L1.62011 9.19141C1.48535 9.08594 1.39453 8.96289 1.34765 8.82227C1.30664 8.68164 1.31543 8.53223 1.37402 8.37402C1.43261 8.21582 1.52343 8.0957 1.64648 8.01367C1.76953 7.93164 1.91601 7.89355 2.08593 7.89941L3.32519 7.95215C3.4541 7.7002 3.58593 7.45703 3.7207 7.22266C3.85546 6.98242 4.00195 6.75098 4.16015 6.52832L3.49218 5.46484C3.40429 5.31836 3.36328 5.17188 3.36914 5.02539C3.375 4.87891 3.43359 4.74121 3.54492 4.6123C3.65039 4.4834 3.77343 4.40137 3.91406 4.36621C4.06054 4.33105 4.21582 4.3457 4.37988 4.41016L5.54004 4.88477C5.73339 4.69141 5.93261 4.50977 6.13769 4.33984C6.34863 4.16406 6.56543 3.99707 6.78808 3.83887L6.5332 2.59961C6.49804 2.43555 6.50683 2.28613 6.55957 2.15137C6.61816 2.01074 6.7207 1.89941 6.86718 1.81738C7.01367 1.74121 7.16015 1.70898 7.30664 1.7207C7.45898 1.73242 7.59961 1.79688 7.72851 1.91406L8.64257 2.75781C8.88867 2.64648 9.14062 2.54395 9.39843 2.4502C9.65625 2.35059 9.91992 2.26562 10.1894 2.19531L10.374 0.947266C10.3975 0.783203 10.4561 0.648438 10.5498 0.542969C10.6494 0.431641 10.7842 0.361328 10.9541 0.332031C11.1182 0.308594 11.2646 0.329102 11.3936 0.393555C11.5225 0.452148 11.6309 0.560547 11.7187 0.71875L12.3076 1.82617C12.4424 1.81445 12.5771 1.80566 12.7119 1.7998C12.8525 1.79395 12.9902 1.79102 13.125 1.79102C13.2598 1.79102 13.3945 1.79395 13.5293 1.7998C13.6699 1.80566 13.8076 1.81445 13.9424 1.82617L14.54 0.71875C14.6221 0.566406 14.7275 0.458008 14.8564 0.393555C14.9853 0.323242 15.1318 0.302734 15.2959 0.332031C15.46 0.367188 15.5918 0.4375 15.6914 0.542969C15.7969 0.642578 15.8584 0.780273 15.876 0.956055L16.0518 2.19531C16.3213 2.26562 16.585 2.34766 16.8428 2.44141C17.1006 2.53516 17.3525 2.6377 17.5986 2.74902L18.5391 1.92285C18.6621 1.81152 18.7939 1.74707 18.9346 1.72949C19.0811 1.70605 19.2305 1.73535 19.3828 1.81738C19.5293 1.90527 19.6289 2.0166 19.6816 2.15137C19.7402 2.28027 19.7519 2.43262 19.7168 2.6084L19.4531 3.82129C19.6758 3.97949 19.8926 4.14648 20.1035 4.32227C20.3144 4.49805 20.5166 4.68555 20.71 4.88477L21.8789 4.41016C22.0312 4.35156 22.1777 4.33691 22.3184 4.36621C22.4648 4.39551 22.5937 4.47754 22.7051 4.6123C22.8105 4.74121 22.8691 4.87891 22.8809 5.02539C22.8926 5.17188 22.8516 5.31836 22.7578 5.46484L22.0986 6.51953C22.2451 6.74219 22.3857 6.97363 22.5205 7.21387C22.6611 7.44824 22.793 7.69141 22.916 7.94336L24.1641 7.9082C24.334 7.90234 24.4805 7.9375 24.6035 8.01367C24.7266 8.08984 24.8174 8.20703 24.876 8.36523C24.9287 8.5293 24.9375 8.68164 24.9023 8.82227C24.8672 8.96289 24.7764 9.08594 24.6299 9.19141L23.6455 9.95605C23.7158 10.2256 23.7744 10.4951 23.8213 10.7646C23.8682 11.0342 23.9062 11.3066 23.9355 11.582L25.1221 11.9688C25.292 12.0156 25.418 12.0977 25.5 12.2148C25.5879 12.332 25.6318 12.4785 25.6318 12.6543C25.6318 12.8242 25.5879 12.9678 25.5 13.085C25.418 13.2021 25.292 13.2871 25.1221 13.3398L23.9355 13.7266C23.9062 14.002 23.8682 14.2744 23.8213 14.5439C23.7744 14.8135 23.7158 15.0801 23.6455 15.3438L24.6387 16.1084C24.7734 16.2197 24.8613 16.3457 24.9023 16.4863C24.9434 16.6211 24.9346 16.7676 24.876 16.9258C24.8174 17.084 24.7266 17.2041 24.6035 17.2861C24.4805 17.3682 24.334 17.4062 24.1641 17.4004L22.916 17.3564C22.793 17.6025 22.6611 17.8457 22.5205 18.0859C22.3857 18.3203 22.2451 18.5488 22.0986 18.7715L22.7578 19.835C22.8516 19.9873 22.8926 20.1338 22.8809 20.2744C22.875 20.4209 22.8193 20.5586 22.7139 20.6875C22.5967 20.8164 22.4678 20.8984 22.3271 20.9336C22.1865 20.9688 22.0342 20.9541 21.8701 20.8896L20.7187 20.4238C20.5195 20.6113 20.3144 20.793 20.1035 20.9688C19.8984 21.1445 19.6816 21.3115 19.4531 21.4697L19.708 22.7002C19.749 22.8701 19.7402 23.0225 19.6816 23.1572C19.6289 23.292 19.5264 23.4004 19.374 23.4824C19.2275 23.5586 19.0811 23.5908 18.9346 23.5791C18.7939 23.5732 18.6592 23.5088 18.5303 23.3857L17.6074 22.5508C17.3555 22.6621 17.1006 22.7646 16.8428 22.8584C16.585 22.9521 16.3242 23.0371 16.0605 23.1133L15.876 24.3525C15.8525 24.5225 15.791 24.6602 15.6914 24.7656C15.5977 24.877 15.4658 24.9443 15.2959 24.9678C15.1318 24.9912 14.9853 24.9707 14.8564 24.9062C14.7275 24.8477 14.6221 24.7422 14.54 24.5898L13.9512 23.4824C13.8105 23.4883 13.6699 23.4941 13.5293 23.5C13.3945 23.5059 13.2598 23.5088 13.125 23.5088ZM13.125 21.5928C14.3613 21.5928 15.5186 21.3613 16.5967 20.8984C17.6807 20.4355 18.6299 19.7939 19.4443 18.9736C20.2646 18.1533 20.9062 17.2041 21.3691 16.126C21.8379 15.042 22.0723 13.8848 22.0723 12.6543C22.0723 11.418 21.8379 10.2607 21.3691 9.18262C20.9062 8.09863 20.2646 7.14648 19.4443 6.32617C18.6299 5.50586 17.6807 4.86426 16.5967 4.40137C15.5186 3.93848 14.3613 3.70703 13.125 3.70703C11.8887 3.70703 10.7285 3.93848 9.64453 4.40137C8.5664 4.86426 7.61718 5.50586 6.79687 6.32617C5.97656 7.14648 5.33496 8.09863 4.87207 9.18262C4.40918 10.2607 4.17773 11.418 4.17773 12.6543C4.17773 13.8848 4.40918 15.042 4.87207 16.126C5.33496 17.2041 5.97656 18.1533 6.79687 18.9736C7.61718 19.7939 8.5664 20.4355 9.64453 20.8984C10.7285 21.3613 11.8887 21.5928 13.125 21.5928ZM11.1035 10.8613L7.30664 4.36621L8.76562 3.59277L12.501 10L11.1035 10.8613ZM15.7002 13.4453V11.8018H23.1357V13.4453H15.7002ZM12.5273 15.3174L8.65136 21.6982L7.21875 20.8896L11.1562 14.4297L12.5273 15.3174ZM13.1338 15.6602C12.5771 15.6602 12.0703 15.5254 11.6133 15.2559C11.1621 14.9863 10.8018 14.623 10.5322 14.166C10.2627 13.709 10.1279 13.2051 10.1279 12.6543C10.1279 12.0977 10.2627 11.5938 10.5322 11.1426C10.8018 10.6855 11.1621 10.3223 11.6133 10.0527C12.0703 9.77734 12.5771 9.63965 13.1338 9.63965C13.6846 9.63965 14.1885 9.77734 14.6455 10.0527C15.1025 10.3223 15.4658 10.6855 15.7353 11.1426C16.0049 11.5938 16.1396 12.0977 16.1396 12.6543C16.1396 13.2051 16.0049 13.709 15.7353 14.166C15.4658 14.623 15.1025 14.9863 14.6455 15.2559C14.1885 15.5254 13.6846 15.6602 13.1338 15.6602ZM13.1338 13.999C13.5029 13.999 13.8193 13.8672 14.083 13.6035C14.3467 13.3398 14.4785 13.0234 14.4785 12.6543C14.4785 12.2793 14.3467 11.9629 14.083 11.7051C13.8193 11.4414 13.5029 11.3096 13.1338 11.3096C12.7646 11.3096 12.4482 11.4414 12.1846 11.7051C11.9209 11.9629 11.7891 12.2793 11.7891 12.6543C11.7891 13.0234 11.9209 13.3398 12.1846 13.6035C12.4482 13.8672 12.7646 13.999 13.1338 13.999Z" fill="#999999"/>
</svg>
