<svg width="27" height="22" viewBox="0 0 27 22" fill="none" xmlns="http://www.w3.org/2000/svg">
<path d="M0.718746 19.3379V3.95703C0.718746 3.8457 0.727535 3.74316 0.745113 3.64941C0.768551 3.55566 0.809566 3.45605 0.86816 3.35059C1.21972 2.74707 1.72949 2.19922 2.39746 1.70703C3.06543 1.21484 3.84472 0.825195 4.73535 0.538086C5.63183 0.245117 6.58984 0.0986328 7.60937 0.0986328C8.83984 0.0986328 9.95898 0.321289 10.9668 0.766602C11.9805 1.20605 12.7832 1.77734 13.375 2.48047C13.9609 1.77734 14.7578 1.20605 15.7656 0.766602C16.7793 0.321289 17.9014 0.0986328 19.1318 0.0986328C20.1572 0.0986328 21.1123 0.245117 21.9971 0.538086C22.8877 0.825195 23.667 1.21484 24.335 1.70703C25.0029 2.19922 25.5156 2.74707 25.873 3.35059C25.9316 3.45605 25.9697 3.55566 25.9873 3.64941C26.0107 3.74316 26.0225 3.8457 26.0225 3.95703V19.3379C26.0225 19.7832 25.8936 20.1113 25.6357 20.3223C25.3779 20.5332 25.0762 20.6387 24.7305 20.6387C24.5371 20.6387 24.3555 20.5947 24.1855 20.5068C24.0156 20.4248 23.8223 20.3164 23.6055 20.1816C22.9961 19.7246 22.3076 19.3701 21.54 19.1182C20.7783 18.8662 19.9873 18.7432 19.167 18.749C18.335 18.7549 17.5264 18.9131 16.7412 19.2236C15.9561 19.54 15.2471 20.0029 14.6143 20.6123C14.3916 20.8291 14.1807 20.9814 13.9814 21.0693C13.7822 21.1572 13.5801 21.2012 13.375 21.2012C13.1641 21.2012 12.959 21.1572 12.7598 21.0693C12.5605 20.9814 12.3467 20.8291 12.1182 20.6123C11.4971 20.0029 10.791 19.54 10 19.2236C9.20898 18.9131 8.39746 18.7549 7.56543 18.749C6.75097 18.7432 5.96289 18.8662 5.20117 19.1182C4.43945 19.3701 3.75097 19.7246 3.13574 20.1816C2.91894 20.3164 2.72558 20.4248 2.55566 20.5068C2.38574 20.5947 2.2041 20.6387 2.01074 20.6387C1.65918 20.6387 1.35449 20.5332 1.09668 20.3223C0.844723 20.1113 0.718746 19.7832 0.718746 19.3379ZM2.66113 18.2129C3.24707 17.7852 3.9707 17.4453 4.83203 17.1934C5.69921 16.9414 6.625 16.8154 7.60937 16.8154C8.23632 16.8154 8.84277 16.8857 9.42871 17.0264C10.0205 17.167 10.5684 17.3574 11.0723 17.5977C11.582 17.8438 12.0244 18.1104 12.3994 18.3975V4.30859C11.9893 3.61133 11.3535 3.06055 10.4922 2.65625C9.63671 2.24609 8.67578 2.04102 7.60937 2.04102C6.92382 2.04102 6.25879 2.13184 5.61425 2.31348C4.97558 2.49512 4.39843 2.75 3.88281 3.07812C3.36718 3.40625 2.95996 3.78711 2.66113 4.2207V18.2129ZM14.3418 18.3975C14.7168 18.1104 15.1562 17.8438 15.6602 17.5977C16.1641 17.3574 16.709 17.167 17.2949 17.0264C17.8867 16.8857 18.499 16.8154 19.1318 16.8154C20.1221 16.8154 21.0478 16.9414 21.9092 17.1934C22.7705 17.4453 23.4941 17.7852 24.0801 18.2129V4.2207C23.7754 3.78711 23.3682 3.40625 22.8584 3.07812C22.3486 2.75 21.7715 2.49512 21.1269 2.31348C20.4883 2.13184 19.8232 2.04102 19.1318 2.04102C18.0713 2.04102 17.1103 2.24609 16.249 2.65625C15.3936 3.06055 14.7578 3.61133 14.3418 4.30859V18.3975Z" fill="#999999"/>
</svg>
