<svg width="22" height="27" viewBox="0 0 22 27" fill="none" xmlns="http://www.w3.org/2000/svg">
<path d="M12.207 26.6689C12.0488 26.6689 11.9141 26.6191 11.8027 26.5195C11.6914 26.4199 11.6211 26.2852 11.5918 26.1152C11.4512 25.0723 11.3018 24.1699 11.1436 23.4082C10.9853 22.6523 10.7891 22.0078 10.5547 21.4746C10.3262 20.9473 10.0361 20.5107 9.68457 20.165C9.333 19.8135 8.89355 19.5264 8.36621 19.3037C7.84472 19.0811 7.20898 18.8936 6.45898 18.7412C5.71484 18.5889 4.83007 18.4453 3.80468 18.3105C3.63476 18.2988 3.49414 18.2373 3.38281 18.126C3.27734 18.0088 3.22461 17.8711 3.22461 17.7129C3.22461 17.543 3.27734 17.4023 3.38281 17.291C3.49414 17.1797 3.63476 17.1152 3.80468 17.0977C4.83593 16.9863 5.72656 16.8633 6.47656 16.7285C7.22656 16.5879 7.86523 16.4062 8.39257 16.1836C8.92578 15.9551 9.36816 15.6621 9.71972 15.3047C10.0771 14.9473 10.3672 14.502 10.5898 13.9688C10.8184 13.4355 11.0088 12.7852 11.1611 12.0176C11.3193 11.25 11.4629 10.3418 11.5918 9.29297C11.6211 9.13477 11.6914 9.00293 11.8027 8.89746C11.9141 8.79199 12.0488 8.73926 12.207 8.73926C12.3711 8.73926 12.5059 8.79199 12.6113 8.89746C12.7227 9.00293 12.79 9.13477 12.8135 9.29297C12.9482 10.3418 13.0918 11.25 13.2441 12.0176C13.4023 12.7793 13.5957 13.4297 13.8242 13.9688C14.0527 14.502 14.3428 14.9473 14.6943 15.3047C15.0518 15.6562 15.4941 15.9463 16.0215 16.1748C16.5488 16.3975 17.1875 16.5791 17.9375 16.7197C18.6875 16.8545 19.5781 16.9805 20.6094 17.0977C20.7793 17.1211 20.917 17.1885 21.0225 17.2998C21.1279 17.4053 21.1807 17.543 21.1807 17.7129C21.1807 17.8711 21.1279 18.0088 21.0225 18.126C20.917 18.2373 20.7793 18.2988 20.6094 18.3105C19.5781 18.4219 18.6875 18.5479 17.9375 18.6885C17.1875 18.8291 16.5459 19.0107 16.0127 19.2334C15.4853 19.4561 15.043 19.7461 14.6855 20.1035C14.334 20.4609 14.0439 20.9062 13.8154 21.4395C13.5869 21.9785 13.3936 22.6289 13.2353 23.3906C13.083 24.1582 12.9424 25.0664 12.8135 26.1152C12.79 26.2852 12.7227 26.4199 12.6113 26.5195C12.5059 26.6191 12.3711 26.6689 12.207 26.6689ZM4.39355 14.0566C4.28808 14.0566 4.20019 14.0244 4.12988 13.96C4.05957 13.8896 4.01855 13.8018 4.00683 13.6963C3.93066 13.0928 3.85449 12.5977 3.77832 12.2109C3.708 11.8242 3.60546 11.5137 3.4707 11.2793C3.34179 11.0449 3.15722 10.8633 2.91699 10.7344C2.67675 10.5996 2.35742 10.4883 1.95898 10.4004C1.5664 10.3125 1.05957 10.2188 0.438473 10.1191C0.18652 10.084 0.0605431 9.95801 0.0605431 9.74121C0.0605431 9.63574 0.0927696 9.55078 0.157223 9.48633C0.221676 9.42188 0.303707 9.37793 0.403316 9.35449C1.02441 9.24316 1.53418 9.14062 1.93261 9.04688C2.33691 8.95312 2.65918 8.8418 2.89941 8.71289C3.1455 8.58398 3.333 8.40527 3.46191 8.17676C3.59668 7.94824 3.70214 7.64355 3.77832 7.2627C3.85449 6.87598 3.93066 6.38086 4.00683 5.77734C4.01855 5.66602 4.05957 5.57812 4.12988 5.51367C4.20019 5.44922 4.28808 5.41699 4.39355 5.41699C4.49316 5.41699 4.57812 5.44922 4.64843 5.51367C4.71875 5.57812 4.75976 5.66309 4.77148 5.76855C4.85351 6.38379 4.93261 6.89063 5.00879 7.28906C5.08496 7.68164 5.1875 7.99512 5.3164 8.22949C5.45117 8.45801 5.63867 8.63965 5.8789 8.77441C6.11914 8.90332 6.43847 9.01172 6.83691 9.09961C7.24121 9.18164 7.7539 9.2666 8.375 9.35449C8.46875 9.37207 8.54785 9.41602 8.6123 9.48633C8.68261 9.55078 8.71777 9.63574 8.71777 9.74121C8.71777 9.84668 8.68554 9.93164 8.62109 9.99609C8.55664 10.0605 8.47461 10.1016 8.375 10.1191C7.74804 10.2363 7.23535 10.3418 6.83691 10.4355C6.43847 10.5293 6.11914 10.6436 5.8789 10.7783C5.63867 10.9072 5.45117 11.0889 5.3164 11.3232C5.1875 11.5518 5.08496 11.8564 5.00879 12.2373C4.93261 12.6182 4.85351 13.1104 4.77148 13.7139C4.75976 13.8135 4.71875 13.8955 4.64843 13.96C4.57812 14.0244 4.49316 14.0566 4.39355 14.0566ZM9.91308 6.20801C9.77246 6.20801 9.6875 6.12598 9.6582 5.96191C9.58203 5.51074 9.51171 5.15332 9.44726 4.88965C9.38281 4.62012 9.2832 4.41504 9.14843 4.27441C9.01953 4.13379 8.81738 4.02539 8.54199 3.94922C8.27246 3.86719 7.88867 3.78223 7.39062 3.69434C7.23242 3.6709 7.15332 3.58594 7.15332 3.43945C7.15332 3.29297 7.23242 3.20801 7.39062 3.18457C7.88867 3.09668 8.27246 3.01465 8.54199 2.93848C8.81738 2.85645 9.01953 2.74512 9.14843 2.60449C9.2832 2.45801 9.38281 2.25293 9.44726 1.98926C9.51171 1.72559 9.58203 1.36816 9.6582 0.916992C9.6875 0.758789 9.77246 0.679688 9.91308 0.679688C10.0596 0.679688 10.1475 0.758789 10.1768 0.916992C10.2529 1.36816 10.3232 1.72852 10.3877 1.99805C10.4521 2.26172 10.5488 2.4668 10.6777 2.61328C10.8125 2.75391 11.0146 2.86523 11.2842 2.94727C11.5596 3.02344 11.9463 3.10254 12.4443 3.18457C12.6025 3.20801 12.6816 3.29297 12.6816 3.43945C12.6816 3.58594 12.6025 3.6709 12.4443 3.69434C11.9463 3.78809 11.5596 3.87598 11.2842 3.95801C11.0146 4.03418 10.8125 4.14258 10.6777 4.2832C10.5488 4.42383 10.4521 4.62598 10.3877 4.88965C10.3232 5.15332 10.2529 5.51074 10.1768 5.96191C10.1475 6.12598 10.0596 6.20801 9.91308 6.20801Z" fill="#999999"/>
</svg>
